<svg width="128" height="128" viewBox="0 0 128 128" xmlns="http://www.w3.org/2000/svg">
  <!-- 배경 그라디언트 -->
  <defs>
    <linearGradient id="bgGradient" x1="0%" y1="0%" x2="100%" y2="100%">
      <stop offset="0%" style="stop-color:#4A90E2;stop-opacity:1" />
      <stop offset="50%" style="stop-color:#7B68EE;stop-opacity:1" />
      <stop offset="100%" style="stop-color:#9B59B6;stop-opacity:1" />
    </linearGradient>
    
    <linearGradient id="whaleGradient" x1="0%" y1="0%" x2="100%" y2="100%">
      <stop offset="0%" style="stop-color:#FFFFFF;stop-opacity:1" />
      <stop offset="100%" style="stop-color:#E3F2FD;stop-opacity:1" />
    </linearGradient>
    
    <filter id="shadow" x="-50%" y="-50%" width="200%" height="200%">
      <feDropShadow dx="2" dy="2" stdDeviation="3" flood-opacity="0.3"/>
    </filter>
  </defs>
  
  <!-- 배경 원형 -->
  <circle cx="64" cy="64" r="58" fill="url(#bgGradient)" stroke="#FFFFFF" stroke-width="4" filter="url(#shadow)"/>
  
  <!-- 웨일 몸체 -->
  <ellipse cx="64" cy="68" rx="35" ry="20" fill="url(#whaleGradient)" opacity="0.9"/>
  
  <!-- 웨일 머리 -->
  <ellipse cx="45" cy="60" rx="15" ry="12" fill="url(#whaleGradient)" opacity="0.9"/>
  
  <!-- 웨일 눈 -->
  <circle cx="42" cy="58" r="2" fill="#2C3E50"/>
  
  <!-- 웨일 분수구멍 -->
  <ellipse cx="38" cy="52" rx="3" ry="1.5" fill="#5DADE2" opacity="0.7"/>
  
  <!-- 물 분수 -->
  <circle cx="38" cy="45" r="1.5" fill="#5DADE2" opacity="0.8"/>
  <circle cx="36" cy="40" r="1" fill="#5DADE2" opacity="0.6"/>
  <circle cx="40" cy="38" r="0.8" fill="#5DADE2" opacity="0.5"/>
  
  <!-- 웨일 꼬리 -->
  <path d="M 85 70 Q 95 65 100 58 Q 95 72 85 75 Z" fill="url(#whaleGradient)" opacity="0.9"/>
  <path d="M 85 70 Q 95 75 100 82 Q 95 68 85 65 Z" fill="url(#whaleGradient)" opacity="0.9"/>
  
  <!-- 집 아이콘 (KB시세) -->
  <g transform="translate(75, 45) scale(0.8)">
    <path d="M 0 8 L 8 0 L 16 8 L 16 16 L 0 16 Z" fill="#FFE082" stroke="#FFC107" stroke-width="1"/>
    <rect x="6" y="10" width="4" height="6" fill="#8D6E63"/>
    <polygon points="0,8 8,0 16,8" fill="#FF7043"/>
  </g>
  
  <!-- 차트 아이콘 (LTV) -->
  <g transform="translate(20, 80) scale(0.8)">
    <rect x="0" y="12" width="3" height="4" fill="#4CAF50"/>
    <rect x="4" y="8" width="3" height="8" fill="#2196F3"/>
    <rect x="8" y="4" width="3" height="12" fill="#FF9800"/>
    <rect x="12" y="0" width="3" height="16" fill="#F44336"/>
  </g>
  
  <!-- 텍스트 "LTV" -->
  <text x="64" y="100" text-anchor="middle" font-family="Arial, sans-serif" font-size="12" font-weight="bold" fill="#FFFFFF">LTV</text>
  
  <!-- 텍스트 "KB" -->
  <text x="64" y="115" text-anchor="middle" font-family="Arial, sans-serif" font-size="10" font-weight="bold" fill="#FFFFFF" opacity="0.8">KB</text>
</svg>